<svg width="36" height="36" viewBox="0 0 36 36" fill="none" xmlns="http://www.w3.org/2000/svg">
<path d="M34.5434 21.8823C32.2273 31.1721 22.8178 36.8251 13.527 34.5091C4.24046 32.193 -1.41316 22.7835 0.903456 13.4943C3.21844 4.20344 12.6274 -1.45072 21.9155 0.865354C31.2058 3.18142 36.8589 12.592 34.5428 21.8823H34.5434Z" fill="#262626"/>
<path fill-rule="evenodd" clip-rule="evenodd" d="M22.9458 15.6727C23.1796 14.1074 21.9878 13.2659 20.3582 12.7045L20.8868 10.5841L19.5958 10.2625L19.0811 12.327C18.7422 12.2424 18.3937 12.1627 18.0474 12.0836L18.5657 10.0055L17.2757 9.68384L16.7467 11.8035C16.4659 11.7395 16.1902 11.6763 15.9225 11.6098L15.924 11.6032L14.144 11.1587L13.8007 12.5373C13.8007 12.5373 14.7583 12.7567 14.7381 12.7703C15.2608 12.9008 15.3557 13.2468 15.3395 13.521L14.7374 15.9366C14.7734 15.9458 14.8201 15.959 14.8715 15.9796L14.7355 15.9458L13.8911 19.3297C13.8271 19.4885 13.665 19.7267 13.2996 19.6363C13.3125 19.655 12.3615 19.4021 12.3615 19.4021L11.7207 20.8799L13.4007 21.2986C13.5904 21.3462 13.7777 21.395 13.963 21.4434C14.083 21.4747 14.2021 21.5058 14.3205 21.5361L13.7863 23.6812L15.0756 24.0028L15.6049 21.881C15.9567 21.9765 16.2986 22.0648 16.6331 22.1478L16.106 24.2598L17.3967 24.5815L17.9308 22.4408C20.1317 22.8573 21.7871 22.6893 22.483 20.6991C23.0444 19.0963 22.4554 18.1717 21.2975 17.5685C22.1408 17.3733 22.776 16.8185 22.9455 15.6727H22.9458ZM19.9964 19.8079C19.63 21.279 17.3269 20.6703 16.274 20.3921C16.1798 20.3672 16.0955 20.3449 16.0236 20.327L16.7323 17.4857C16.8203 17.5077 16.9277 17.5318 17.0494 17.5591C18.1386 17.8035 20.3707 18.3044 19.9968 19.8079H19.9964ZM17.2682 16.2407C18.1467 16.475 20.0616 16.9859 20.3952 15.6495C20.7362 14.2824 18.8742 13.8704 17.9648 13.6691C17.8626 13.6465 17.7724 13.6265 17.6987 13.6082L17.0561 16.1852C17.1169 16.2003 17.1883 16.2193 17.2682 16.2407Z" fill="#CAFF33"/>
</svg>
