<svg width="35" height="36" viewBox="0 0 35 36" fill="none" xmlns="http://www.w3.org/2000/svg">
<path fill-rule="evenodd" clip-rule="evenodd" d="M17.4877 35.0279C27.0647 35.0279 34.8284 27.2642 34.8284 17.6872C34.8284 8.11014 27.0647 0.346436 17.4877 0.346436C7.91068 0.346436 0.146973 8.11014 0.146973 17.6872C0.146973 27.2642 7.91068 35.0279 17.4877 35.0279Z" fill="#262626"/>
<path fill-rule="evenodd" clip-rule="evenodd" d="M15.9683 9.68384C16.9206 9.68384 17.8695 9.68384 18.8218 9.68384C18.7658 10.3281 18.7063 10.9758 18.6538 11.6201C19.7637 11.7006 20.8456 12.0577 21.819 12.5864C21.3988 13.6438 20.9751 14.7012 20.5515 15.7586C19.7322 15.0618 18.6538 14.6767 17.5789 14.6907C17.3093 14.6977 17.0292 14.7502 16.8051 14.9043C16.658 15.0058 16.5495 15.1634 16.518 15.3384C16.4935 15.4785 16.5005 15.6361 16.5775 15.7621C16.665 15.9022 16.8191 15.9862 16.9732 16.0387C17.2883 16.1508 17.6279 16.1578 17.957 16.1928C18.7308 16.2873 19.5081 16.4204 20.2399 16.697C20.8071 16.914 21.3498 17.2397 21.7384 17.7158C22.1061 18.1535 22.3196 18.7067 22.4002 19.2739C22.4947 19.9287 22.4667 20.6079 22.2636 21.2452C22.1061 21.7563 21.8365 22.2325 21.4863 22.6352C20.7616 23.4755 19.6972 23.9797 18.6048 24.1092C18.6398 24.799 18.6818 25.4852 18.7203 26.175C17.817 26.175 16.9171 26.175 16.0173 26.175C16.0523 25.4922 16.0978 24.8095 16.1293 24.1267C15.4046 24.1022 14.6868 23.9412 14.011 23.6856C13.3563 23.437 12.7331 23.1078 12.1519 22.7227C12.579 21.6233 13.0062 20.5239 13.4368 19.421C13.9235 19.8306 14.4417 20.2123 15.0089 20.5029C15.6181 20.8145 16.2939 21.0141 16.9802 21.0211C17.3058 21.0246 17.6419 21.0071 17.95 20.895C18.1391 20.825 18.3247 20.7024 18.4087 20.5099C18.4962 20.3068 18.4892 20.0512 18.3562 19.8691C18.2616 19.7466 18.1286 19.6626 17.9885 19.603C17.7995 19.526 17.6034 19.484 17.4038 19.4525C16.6685 19.3334 15.9298 19.2354 15.219 19.0043C14.6483 18.8187 14.0916 18.5596 13.6364 18.1605C13.3493 17.9119 13.1112 17.6073 12.9432 17.2642C12.6911 16.753 12.5965 16.1753 12.6035 15.608C12.6035 14.9743 12.7331 14.3301 13.0482 13.7734C13.3213 13.2762 13.7379 12.87 14.2071 12.5584C14.7743 12.1838 15.4081 11.9282 16.0523 11.7216C16.0243 11.0423 15.9963 10.3631 15.9683 9.68384Z" fill="#CAFF33"/>
</svg>
