<svg width="35" height="36" viewBox="0 0 35 36" fill="none" xmlns="http://www.w3.org/2000/svg">
<path d="M34.5874 17.6877C34.5874 27.2143 26.8647 34.9372 17.3382 34.9372C7.81162 34.9372 0.0888672 27.2143 0.0888672 17.6877C0.0888672 8.16123 7.81162 0.438477 17.3382 0.438477C26.8646 0.438477 34.5874 8.16123 34.5874 17.6877Z" fill="#262626"/>
<g opacity="0.8">
<path d="M17.2828 9.68384L17.1763 10.046V20.5542L17.2828 20.6605L22.1606 17.7773L17.2828 9.68384Z" fill="#CAFF33"/>
<path d="M17.2831 9.68384L12.4053 17.7773L17.2831 20.6606V15.5602V9.68384Z" fill="#CAFF33"/>
<path d="M17.2832 22.2475L17.2231 22.3207V26.064L17.2832 26.2393L22.1639 19.3657L17.2832 22.2475Z" fill="#CAFF33"/>
<path d="M17.2831 26.2394V22.2475L12.4053 19.3657L17.2831 26.2394Z" fill="#CAFF33"/>
<path d="M17.2832 20.6606L22.1609 17.7774L17.2832 15.5603V20.6606Z" fill="#CAFF33"/>
<path d="M12.4053 17.7774L17.283 20.6606V15.5603L12.4053 17.7774Z" fill="#CAFF33"/>
</g>
</svg>
