<svg width="36" height="36" viewBox="0 0 36 36" fill="none" xmlns="http://www.w3.org/2000/svg">
<path d="M35.352 17.6877C35.352 27.2143 27.6294 34.9372 18.1029 34.9372C8.57626 34.9372 0.853516 27.2143 0.853516 17.6877C0.853516 8.16123 8.57626 0.438477 18.1029 0.438477C27.6293 0.438477 35.352 8.16123 35.352 17.6877Z" fill="#262626"/>
<path d="M22.9504 24.8949L22.5524 23.0875C22.5298 22.9812 22.4729 22.9016 22.3818 22.8488C22.2833 22.7957 22.1848 22.7883 22.0864 22.8262L22.0294 22.8488L21.8928 22.8829C21.8321 22.8978 21.762 22.915 21.6825 22.9339C21.6029 22.9529 21.5102 22.9717 21.404 22.9908C21.2982 23.0097 21.1859 23.0269 21.0687 23.042C20.9513 23.0569 20.8246 23.0704 20.688 23.0818C20.5515 23.093 20.4152 23.0987 20.2787 23.0987C19.3161 23.0987 18.4501 22.8392 17.681 22.3201C16.9117 21.8008 16.3452 21.0978 15.9814 20.2113H20.3808C20.4643 20.2113 20.5401 20.1829 20.608 20.1259C20.6765 20.0692 20.7182 19.9992 20.733 19.9155L21.0059 18.6423C21.0287 18.5289 21.0059 18.4265 20.9378 18.3354C20.8621 18.2444 20.7671 18.1989 20.6536 18.1989H15.4358C15.4131 17.6835 15.4131 17.2857 15.4358 17.0052H20.9835C21.1883 17.0052 21.3094 16.9068 21.3473 16.7097L21.6201 15.4137C21.6427 15.3076 21.6166 15.2092 21.5405 15.1182C21.4726 15.0272 21.3778 14.9816 21.2565 14.9816H15.9361C16.315 14.1328 16.8834 13.4659 17.6414 12.9808C18.3993 12.4956 19.2557 12.2532 20.2106 12.2532C20.241 12.238 20.3527 12.2419 20.5458 12.2646C20.739 12.2872 20.8491 12.2967 20.8755 12.2929C20.9017 12.2892 21.0006 12.3006 21.171 12.327C21.3416 12.3535 21.4269 12.3668 21.4269 12.3668L21.6258 12.4065C21.6828 12.418 21.7264 12.4273 21.7566 12.435L21.8021 12.4463C21.9006 12.4767 21.9913 12.4672 22.075 12.418C22.1584 12.3686 22.2115 12.2948 22.2343 12.1963L22.7232 10.3887C22.7458 10.2902 22.7343 10.1992 22.6891 10.1159C22.6208 10.0248 22.5449 9.96798 22.4616 9.94532C21.7644 9.77104 21.0289 9.68384 20.2561 9.68384C18.5582 9.68384 17.0407 10.169 15.703 11.139C14.3653 12.109 13.4426 13.39 12.9348 14.9815H11.8208C11.7146 14.9815 11.6275 15.0155 11.5593 15.0837C11.4912 15.1518 11.457 15.239 11.457 15.3452V16.6412C11.457 16.7473 11.4911 16.8345 11.5593 16.9025C11.6276 16.9708 11.7148 17.0048 11.8208 17.0048H12.5825C12.5596 17.3687 12.556 17.7663 12.571 18.1986H11.8208C11.7223 18.1986 11.637 18.2345 11.565 18.3065C11.4931 18.3784 11.457 18.4637 11.457 18.5621V19.8468C11.457 19.9455 11.4931 20.0305 11.565 20.1027C11.637 20.1747 11.7223 20.2104 11.8208 20.2104H12.9008C13.3782 21.8853 14.2802 23.2174 15.6065 24.2064C16.9329 25.1957 18.4827 25.6901 20.2561 25.6901C20.4002 25.6901 20.546 25.6865 20.6939 25.6786C20.842 25.671 20.9801 25.6596 21.1089 25.6446C21.2377 25.6296 21.3647 25.6127 21.4898 25.5936C21.6148 25.5745 21.7285 25.5559 21.8307 25.5366C21.9331 25.5178 22.0297 25.4989 22.1206 25.4801C22.2116 25.4609 22.2931 25.4403 22.3652 25.4174C22.4371 25.395 22.4975 25.3778 22.5469 25.3666C22.5963 25.3552 22.636 25.3417 22.6661 25.3268L22.7231 25.3154C22.8065 25.2851 22.871 25.2301 22.9164 25.1504C22.9619 25.0712 22.973 24.9858 22.9504 24.8949Z" fill="#CAFF33"/>
</svg>
